# xmcd CD database file
#
# Track frame offsets:
#	150
#	16661
#	34610
#	55125
#	70469
#	89605
#	110592
#	132581
#	153012
#	169361
#	190547
#	217451
#	232579
#	247912
#	264310
#	277108
#	293370
#	317488
#
# Disc length: 4501 seconds
#
# Revision: 0
# Processed by: cddbd v1.5.2PL0 Copyright (c) Steve Scherf et al.
# Submitted via: CDex 1.70beta2
#
DISCID=f7119312
DTITLE=Nick The Nightfly - 100 Hits In Jazz - CD 1
DYEAR=2009
DGENRE=Jazz
TTITLE0=Miles Davis - Time After Time
TTITLE1=The Manhattan Transfer - 10 Minutes Till The Savages Come
TTITLE2=Lyambiko - Here Comes The Sun
TTITLE3=Dexter Gordon - Isn't She Lovely
TTITLE4=Otmar Liebert And Luna Negra - Samba Pa Ti
TTITLE5=New York Voices - Still Crazy After All These Years
TTITLE6=Tuck And Patty - Woodstock
TTITLE7=Miles Davis - Human Nature
TTITLE8=Tommy Emmanuel - Field Of Gold
TTITLE9=Idris Muhammad - House of The Rising Sun
TTITLE10=Weather Report - Birdland
TTITLE11=Louis Armstrong - What A Wonderful World
TTITLE12=Steve Tyrell - It Had To Be You
TTITLE13=Jane Monheit - Honeysuckie Rose
TTITLE14=Lisa Ekdahl - It Was Just One Of Those Things
TTITLE15=Tony Bennett - Night And day
TTITLE16=Don Braden - Smoke Gets In Your Eyes
TTITLE17=George Benson - The Shadow Of Your Smile
EXTD=YEAR: 2009
EXTT0=
EXTT1=
EXTT2=
EXTT3=
EXTT4=
EXTT5=
EXTT6=
EXTT7=
EXTT8=
EXTT9=
EXTT10=
EXTT11=
EXTT12=
EXTT13=
EXTT14=
EXTT15=
EXTT16=
EXTT17=
PLAYORDER=
